<?xml version="1.0" encoding="utf-8"?>
<!-- Generator: Adobe Illustrator 16.0.0, SVG Export Plug-In . SVG Version: 6.00 Build 0)  -->
<!DOCTYPE svg PUBLIC "-//W3C//DTD SVG 1.1//EN" "http://www.w3.org/Graphics/SVG/1.1/DTD/svg11.dtd">
<svg version="1.1" id="Capa_1" xmlns="http://www.w3.org/2000/svg" xmlns:xlink="http://www.w3.org/1999/xlink" x="0px" y="0px"
	 width="1000px" height="1000px" viewBox="0 0 1000 1000" enable-background="new 0 0 1000 1000" xml:space="preserve">
<path fill="#33CD5F" d="M949.278,4.537c-3.935-3.443-9.128-5.01-14.374-4.391L370.117,73.222
	c-9.091,1.185-15.887,8.909-15.887,18.073v109.623v76.738v474.329c-31.646-36.255-81.001-59.666-136.624-59.666
	c-95.595,0-173.08,68.885-173.08,153.84S122.012,1000,217.607,1000c95.594,0,173.08-68.886,173.08-153.841
	c0-6.049-0.492-11.988-1.257-17.872c0.729-1.968,1.257-4.026,1.257-6.249V293.652l528.349-68.375v344.501
	c-31.664-36.237-81.02-59.648-136.642-59.648c-95.595,0-173.08,68.886-173.08,153.841c0,84.954,77.485,153.84,173.08,153.84
	s173.079-68.886,173.079-153.84c0-1.677-0.219-3.298-0.273-4.956c0.037-0.492,0.273-0.911,0.273-1.402V204.544v-76.72V18.219
	C955.473,12.972,953.214,7.98,949.278,4.537z"/>
</svg>
